<?xml version="1.0" encoding="UTF-8"?>
<svg width="32px" height="32px" viewBox="0 0 32 32" version="1.1" xmlns="http://www.w3.org/2000/svg" xmlns:xlink="http://www.w3.org/1999/xlink">
    <!-- Generator: Sketch 49.3 (51167) - http://www.bohemiancoding.com/sketch -->
    <title>Efterskole/Assets/Checked_Radio@2x</title>
    <desc>Created with Sketch.</desc>
    <defs></defs>
    <g id="Efterskole/Assets/Checked_Radio" stroke="none" stroke-width="1" fill="none" fill-rule="evenodd">
        <path d="M16,11 C13.24,11 11,13.24 11,16 C11,18.76 13.24,21 16,21 C18.76,21 21,18.76 21,16 C21,13.24 18.76,11 16,11 Z M16,6 C10.48,6 6,10.48 6,16 C6,21.52 10.48,26 16,26 C21.52,26 26,21.52 26,16 C26,10.48 21.52,6 16,6 Z M16,24 C11.58,24 8,20.42 8,16 C8,11.58 11.58,8 16,8 C20.42,8 24,11.58 24,16 C24,20.42 20.42,24 16,24 Z" id="Shape" fill="#B2BC00" fill-rule="nonzero"></path>
    </g>
</svg>