<?xml version="1.0" encoding="UTF-8"?>
<svg width="48px" height="48px" viewBox="0 0 48 48" version="1.1" xmlns="http://www.w3.org/2000/svg" xmlns:xlink="http://www.w3.org/1999/xlink">
    <!-- Generator: Sketch 49.3 (51167) - http://www.bohemiancoding.com/sketch -->
    <title>Efterskole/Assets/Facebook@2x</title>
    <desc>Created with Sketch.</desc>
    <defs></defs>
    <g id="Efterskole/Assets/Facebook" stroke="none" stroke-width="1" fill="none" fill-rule="evenodd">
        <g id="UI-Elements/Logos/Soacial-Media/Facebook" transform="translate(4.000000, 4.000000)" fill="#385C8E" fill-rule="nonzero">
            <path d="M10.6684744,21.3503476 L15.0151765,21.3503476 L15.0151765,39.2451477 C15.0151765,39.5984726 15.3014301,39.8847262 15.654755,39.8847262 L23.0247785,39.8847262 C23.3781034,39.8847262 23.664357,39.5984726 23.664357,39.2451477 L23.664357,21.4346902 L28.6613256,21.4346902 C28.9862266,21.4346902 29.2596236,21.190879 29.2967219,20.8681466 L30.0556502,14.2802089 C30.0764841,14.0989769 30.019094,13.9174352 29.897808,13.7814337 C29.7764445,13.6453548 29.6027251,13.5674406 29.4204089,13.5674406 L23.6646668,13.5674406 L23.6646668,9.43775216 C23.6646668,8.19290526 24.3349153,7.56161383 25.6571344,7.56161383 C25.8455692,7.56161383 29.4204089,7.56161383 29.4204089,7.56161383 C29.7737338,7.56161383 30.0599874,7.27520533 30.0599874,6.9220353 L30.0599874,0.874850504 C30.0599874,0.521525576 29.7737338,0.235271974 29.4204089,0.235271974 L24.2339986,0.235271974 C24.1974424,0.233490634 24.1161978,0.23054755 23.9964607,0.23054755 C23.0965742,0.23054755 19.9686185,0.407210014 17.497745,2.68027738 C14.7600576,5.19924712 15.1406448,8.21521073 15.2315706,8.73815022 L15.2315706,13.5672857 L10.668397,13.5672857 C10.315072,13.5672857 10.0288184,13.8535393 10.0288184,14.2068642 L10.0288184,20.7106916 C10.0288959,21.0639391 10.3151495,21.3503476 10.6684744,21.3503476 Z" id="Shape"></path>
        </g>
    </g>
</svg>