<?xml version="1.0" encoding="UTF-8"?>
<svg width="56px" height="56px" viewBox="0 0 56 56" version="1.1" xmlns="http://www.w3.org/2000/svg" xmlns:xlink="http://www.w3.org/1999/xlink">
    <!-- Generator: Sketch 49.3 (51167) - http://www.bohemiancoding.com/sketch -->
    <title>Efterskole/Assets/Google+@2x</title>
    <desc>Created with Sketch.</desc>
    <defs></defs>
    <g id="Efterskole/Assets/Google+" stroke="none" stroke-width="1" fill="none" fill-rule="evenodd">
        <g fill="#F34A38" fill-rule="nonzero" id="Combined-Shape">
            <path d="M21.0705579,31.1289289 C20.5170502,31.1289289 20.0682243,30.6739407 20.0682243,30.1126024 L20.0682243,26.3883823 C20.0682243,25.827044 20.5169482,25.3720558 21.0705579,25.3720558 L34.5767576,25.3720558 C34.5767576,25.3720558 34.5691054,28.7530174 34.5574741,28.8530568 C34.1208917,36.8323165 27.6030709,43.1666667 19.6244999,43.1666667 C11.3280064,43.1666667 4.60908625,36.3178426 4.66703876,27.891871 C4.72448112,19.5286956 11.6756194,12.6729402 19.9222207,12.8361897 C23.7886122,12.9127453 27.2947391,14.4776853 29.9084177,16.9883966 C30.3267368,17.3902098 30.3252064,18.0664848 29.9056629,18.4669531 L27.2227065,21.027322 C26.8387712,21.3937541 26.2445539,21.3914781 25.8541907,21.0321844 C24.2061152,19.5156605 22.0200404,18.5901661 19.6244999,18.5901661 C14.3853074,18.5901661 10.1461017,23.0152832 10.3513841,28.3730329 C10.5428927,33.371282 14.6218107,37.3726538 19.5548141,37.4095867 C23.6203663,37.440002 27.0930276,34.8046293 28.3752269,31.1289289 L21.0705579,31.1289289 Z M46.8662967,25.7424594 L50.4549651,25.7424594 C50.9401133,25.7424594 51.3333333,26.1411689 51.3333333,26.63309 L51.3333333,29.6957253 C51.3333333,30.1876464 50.9401133,30.5863559 50.4549651,30.5863559 L46.8662967,30.5863559 L46.8662967,34.2251235 C46.8662967,34.7170445 46.4730767,35.115754 45.9879285,35.115754 L42.96746,35.115754 C42.4823118,35.115754 42.0890918,34.7170445 42.0890918,34.2251235 L42.0890918,30.5863559 L38.5004234,30.5863559 C38.0152752,30.5863559 37.6220552,30.1876464 37.6220552,29.6957253 L37.6220552,26.63309 C37.6220552,26.1411689 38.0152752,25.7424594 38.5004234,25.7424594 L42.0890918,25.7424594 L42.0890918,22.1036918 C42.0890918,21.6117708 42.4823118,21.2130613 42.96746,21.2130613 L45.9879285,21.2130613 C46.4730767,21.2130613 46.8662967,21.6117708 46.8662967,22.1036918 L46.8662967,25.7424594 Z"></path>
        </g>
    </g>
</svg>