<?xml version="1.0" encoding="UTF-8"?>
<svg width="56px" height="56px" viewBox="0 0 56 56" version="1.1" xmlns="http://www.w3.org/2000/svg" xmlns:xlink="http://www.w3.org/1999/xlink">
    <!-- Generator: Sketch 49.3 (51167) - http://www.bohemiancoding.com/sketch -->
    <title>Efterskole/Assets/Link@2x</title>
    <desc>Created with Sketch.</desc>
    <defs>
        <path d="M3.8,10 C3.8,6.58 6.58,3.8 10,3.8 L18,3.8 L18,0 L10,0 C4.48,0 0,4.48 0,10 C0,15.52 4.48,20 10,20 L18,20 L18,16.2 L10,16.2 C6.58,16.2 3.8,13.42 3.8,10 Z M12,12 L28,12 L28,8 L12,8 L12,12 Z M30,0 L22,0 L22,3.8 L30,3.8 C33.42,3.8 36.2,6.58 36.2,10 C36.2,13.42 33.42,16.2 30,16.2 L22,16.2 L22,20 L30,20 C35.52,20 40,15.52 40,10 C40,4.48 35.52,0 30,0 Z" id="path-1"></path>
    </defs>
    <g id="Efterskole/Assets/Link" stroke="none" stroke-width="1" fill="none" fill-rule="evenodd">
        <g id="🎨-Color" transform="translate(8.000000, 18.000000)">
            <mask id="mask-2" fill="white">
                <use xlink:href="#path-1"></use>
            </mask>
            <use id="Mask" fill="#4A4A4A" fill-rule="nonzero" xlink:href="#path-1"></use>
        </g>
    </g>
</svg>