<?xml version="1.0" encoding="UTF-8"?>
<svg width="16px" height="16px" viewBox="0 0 16 16" version="1.1" xmlns="http://www.w3.org/2000/svg" xmlns:xlink="http://www.w3.org/1999/xlink">
    <!-- Generator: Sketch 49.3 (51167) - http://www.bohemiancoding.com/sketch -->
    <title>Efterskole/Assets/Location@2x</title>
    <desc>Created with Sketch.</desc>
    <defs></defs>
    <g id="Efterskole/Assets/Location" stroke="none" stroke-width="1" fill="none" fill-rule="evenodd">
        <path d="M8,2 C4.688,2 2,4.688 2,8 C2,11.312 4.688,14 8,14 C11.312,14 14,11.312 14,8 C14,4.688 11.312,2 8,2 Z M7.4,12.758 C5.03,12.464 3.2,10.448 3.2,8 C3.2,7.628 3.248,7.274 3.326,6.926 L6.2,9.8 L6.2,10.4 C6.2,11.06 6.74,11.6 7.4,11.6 L7.4,12.758 Z M11.54,11.234 C11.384,10.748 10.94,10.4 10.4,10.4 L9.8,10.4 L9.8,8.6 C9.8,8.27 9.53,8 9.2,8 L5.6,8 L5.6,6.8 L6.8,6.8 C7.13,6.8 7.4,6.53 7.4,6.2 L7.4,5 L8.6,5 C9.26,5 9.8,4.46 9.8,3.8 L9.8,3.554 C11.558,4.268 12.8,5.99 12.8,8 C12.8,9.248 12.32,10.382 11.54,11.234 Z" id="Shape" fill="#9B9B9B" fill-rule="nonzero"></path>
    </g>
</svg>