<?xml version="1.0" encoding="UTF-8"?>
<svg width="209px" height="32px" viewBox="0 0 209 32" version="1.1" xmlns="http://www.w3.org/2000/svg" xmlns:xlink="http://www.w3.org/1999/xlink">
    <!-- Generator: Sketch 49.3 (51167) - http://www.bohemiancoding.com/sketch -->
    <title>Efterskole/Assets/Logo_White@2x</title>
    <desc>Created with Sketch.</desc>
    <defs></defs>
    <g id="Efterskole/Assets/Logo_White" stroke="none" stroke-width="1" fill="none" fill-rule="evenodd">
        <g id="UI-Elements/Logos/efterskole-white" fill="#FFFFFF">
            <polygon id="Fill-9" points="133.39008 21.3376 140.004488 30.9947077 148.273235 30.9769846 137.651521 18.0420923 146.997648 9.2544 138.874122 9.27113846 130.99492 17.8796308 130.84185 17.8747077 130.84185 3.44615385 124.133244 3.44615385 124.124413 30.9769846 130.865399 30.9769846 130.865399 23.2507077 133.171268 21.2972308"></polygon>
            <polygon id="Fill-11" points="182.053718 31.0892308 175.147887 31.0843077 175.147887 3.44615385 182.041944 3.44615385 182.04685 15.5766154"></polygon>
            <path d="M158.981314,12.7153231 C155.372384,12.7153231 153.525727,15.9271385 153.525727,19.8872615 C153.525727,23.8148923 155.551947,27.0444308 158.981314,27.0444308 C162.494083,27.0444308 164.426107,23.8414769 164.426107,19.8872615 C164.426107,15.9271385 162.417548,12.6976 158.981314,12.7153231 M171.179849,19.8016 C171.179849,26.2163692 166.310051,31.2448 158.940102,31.2448 C151.71145,31.2310154 146.692506,26.1376 146.692506,19.8222769 C146.681713,13.5670154 151.599591,8.36923077 158.940102,8.36923077 C166.15698,8.36923077 171.179849,13.4862769 171.179849,19.8016" id="Fill-15"></path>
            <path d="M116.945803,18.6171723 C115.674141,18.0480646 114.444671,17.719203 113.364347,17.4139723 C112.428263,17.1668338 111.611887,16.9482492 110.956432,16.6331723 C110.187155,16.2688646 109.812329,15.6505261 109.924188,14.9297877 C110.095901,13.6714492 111.303784,13.0156953 113.417333,13.0156953 C114.599704,13.0048646 116.084291,13.3130492 117.961366,13.9392646 L118.75223,9.96535688 C117.355953,9.22787996 114.927432,8.39095688 112.516573,8.36929535 C109.01754,8.35747996 104.707038,9.96535688 104.040789,14.5694184 C103.486399,18.3552646 105.637235,20.2654184 107.534915,21.1761877 C108.59169,21.7029569 109.831953,22.0081877 110.93877,22.2947107 C111.938634,22.5487415 112.802108,22.762403 113.338836,23.0833877 C114.051202,23.5284338 114.347531,24.0414184 114.251371,24.7119415 C114.039427,26.1130492 112.307573,26.8495415 110.783737,26.8347723 C108.799709,26.8347723 106.876516,26.3562492 104.388141,25.2377261 L103.518779,29.4302184 C103.811183,29.6025261 107.011925,31.4211107 111.269441,31.4211107 C113.561573,31.4211107 115.595643,30.8805569 117.175408,29.8378492 C118.801291,28.7665877 119.844329,27.2099107 120.171075,25.3568646 C120.881479,21.3524338 118.809141,19.4816646 116.945803,18.6171723" id="Fill-17"></path>
            <path d="M27.6880845,7.17835627 C27.6821972,7.20297166 27.7155587,9.30611012 27.6880845,9.2854332 L24.0399061,9.29429473 L24.0399061,13.4651255 L27.6586479,13.4651255 L27.637061,31.0779255 L34.3701972,31.0779255 L34.3584225,13.4651255 L39.5726291,13.4651255 L39.5598732,9.2854332 L34.3652911,9.29429473 C34.3407606,9.29429473 34.3701972,7.73761781 34.3652911,6.84457166 C34.3652911,4.8379255 35.1414366,4.35054089 36.2884836,4.05220243 C36.7074648,3.93798704 37.6386432,3.93798704 38.264662,4.02266397 C38.5649155,4.0699255 38.8318075,4.12309473 39.2498075,4.2363255 L39.8640516,0.740940888 C38.9103052,0.438663965 37.4168873,0.0320178115 36.0176667,0.00543319608 C30.2539765,-0.130443727 27.6880845,2.28284858 27.6880845,7.17835627 Z" id="Fill-19"></path>
            <path d="M98.8256009,8.50887457 C97.0437042,8.77078226 95.0233709,9.86272072 93.7212911,12.1135515 L93.5299531,12.1135515 L93.1992817,9.14395149 L87.3286385,9.13115149 L87.3286385,30.9246284 L93.9087042,30.9246284 L93.9087042,16.3601976 C94.92623,14.5819823 97.1899061,12.864813 101.578906,13.73029 L101.796737,8.54825919 C100.999986,8.33656688 100.201272,8.29915149 98.8256009,8.50887457" id="Fill-23"></path>
            <path d="M55.9168216,27.4963692 C52.5895023,27.4963692 52.5286667,25.6187077 52.5286667,23.2044308 C52.5286667,22.5230769 52.5129671,16.3229538 52.5198357,13.5729231 L59.3746432,13.5729231 L59.3746432,9.39323077 L52.5198357,9.39323077 L52.5198357,4.43076923 L46.206662,4.43076923 L45.8720657,9.39323077 L41.7018779,9.39323077 L41.7018779,13.5729231 L45.8720657,13.5729231 C45.8720657,13.5729231 45.8789343,23.6760615 45.8720657,23.6888615 C45.8720657,27.8262154 45.6424601,31.7036308 54.5352629,31.7036308 C56.1307277,31.7036308 58.2138592,31.2556308 59.582662,30.7396923 L58.8840329,26.944 C58.0303709,27.2521846 56.9294413,27.4963692 55.9168216,27.4963692" id="Fill-25"></path>
            <path d="M11.126061,12.4662154 C14.46123,12.4662154 16.0419765,14.7101538 16.0419765,18.3079385 L6.34162911,18.3079385 C6.53787324,14.7101538 8.07838967,12.4544 11.126061,12.4662154 M9.70819718,26.3552 C7.89882629,25.8176 6.78023474,24.1250462 6.59085915,22.0002462 L22.238385,22.0002462 L22.3306197,20.6375385 C22.3374883,14.3015385 19.2554742,8.36923077 11.5067746,8.36923077 C4.82466197,8.36923077 0,12.5666462 0,19.7956923 C0,27.0444308 4.88353521,31.1788308 11.9699108,31.1788308 C14.8635305,31.1630769 17.8768592,30.5368615 20.0316197,29.3533538 L19.3408404,25.5744 C16.5316056,26.5265231 12.5988732,27.1970462 9.70819718,26.3552" id="Fill-27"></path>
            <path d="M72.465108,12.4662154 C75.7855587,12.4662154 77.3682676,14.7101538 77.3682676,18.3079385 L67.6708638,18.3079385 C67.8631831,14.7101538 69.4036995,12.4544 72.465108,12.4662154 M71.033507,26.3552 C69.2182488,25.8176 68.1055446,24.1250462 67.9181315,22.0002462 L83.5686009,22.0002462 L83.6608357,20.6375385 C83.6696667,14.3015385 80.5798028,8.36923077 72.8301221,8.36923077 C66.1519343,8.36923077 61.3262911,12.5666462 61.3262911,19.7956923 C61.3262911,27.0444308 66.2147324,31.1788308 73.3050329,31.1788308 C76.1937465,31.1630769 79.2090376,30.5368615 81.3559484,29.3533538 L80.665169,25.5744 C77.8578967,26.5265231 73.9310516,27.1970462 71.033507,26.3552" id="Fill-29"></path>
            <path d="M197.563873,12.4662154 C200.887268,12.4662154 202.477826,14.7101538 202.477826,18.3079385 L192.772573,18.3079385 C192.970779,14.7101538 194.508352,12.4544 197.563873,12.4662154 M196.132272,26.3552 C194.319958,25.8176 193.207254,24.1250462 193.023765,22.0002462 L208.669329,22.0002462 L208.760582,20.6375385 C208.774319,14.3015385 205.691324,8.36923077 197.940662,8.36923077 C191.254624,8.36923077 186.431925,12.5666462 186.431925,19.7956923 C186.431925,27.0444308 191.311535,31.1788308 198.398892,31.1788308 C201.293493,31.1630769 204.311728,30.5368615 206.463545,29.3533538 L205.774728,25.5744 C202.962549,26.5265231 199.035704,27.1970462 196.132272,26.3552" id="Fill-33"></path>
        </g>
    </g>
</svg>