<?xml version="1.0" encoding="UTF-8"?>
<svg width="32px" height="32px" viewBox="0 0 32 32" version="1.1" xmlns="http://www.w3.org/2000/svg" xmlns:xlink="http://www.w3.org/1999/xlink">
    <!-- Generator: Sketch 49.3 (51167) - http://www.bohemiancoding.com/sketch -->
    <title>Efterskole/Assets/Search_02@2x</title>
    <desc>Created with Sketch.</desc>
    <defs></defs>
    <g id="Efterskole/Assets/Search_02" stroke="none" stroke-width="1" fill="none" fill-rule="evenodd">
        <path d="M21.1526587,19.0943396 L20.0686106,19.0943396 L19.6843911,18.7238422 C21.0291595,17.1595197 21.838765,15.1286449 21.838765,12.9193825 C21.838765,7.99313894 17.8456261,4 12.9193825,4 C7.99313894,4 4,7.99313894 4,12.9193825 C4,17.8456261 7.99313894,21.838765 12.9193825,21.838765 C15.1286449,21.838765 17.1595197,21.0291595 18.7238422,19.6843911 L19.0943396,20.0686106 L19.0943396,21.1526587 L25.9554031,28 L28,25.9554031 L21.1526587,19.0943396 Z M12.9193825,19.0943396 C9.5025729,19.0943396 6.74442539,16.3361921 6.74442539,12.9193825 C6.74442539,9.5025729 9.5025729,6.74442539 12.9193825,6.74442539 C16.3361921,6.74442539 19.0943396,9.5025729 19.0943396,12.9193825 C19.0943396,16.3361921 16.3361921,19.0943396 12.9193825,19.0943396 Z" id="Shape" fill="#DCDFE0" fill-rule="nonzero"></path>
    </g>
</svg>