<?xml version="1.0" encoding="UTF-8"?>
<svg width="54px" height="52px" viewBox="0 0 54 52" version="1.1" xmlns="http://www.w3.org/2000/svg" xmlns:xlink="http://www.w3.org/1999/xlink">
    <!-- Generator: Sketch 49.3 (51167) - http://www.bohemiancoding.com/sketch -->
    <title>Efterskole/Assets/Search_Black@2x</title>
    <desc>Created with Sketch.</desc>
    <defs></defs>
    <g id="Efterskole/Assets/Search_Black" stroke="none" stroke-width="1" fill="none" fill-rule="evenodd">
        <path d="M32.1526587,29.0943396 L31.0686106,29.0943396 L30.6843911,28.7238422 C32.0291595,27.1595197 32.838765,25.1286449 32.838765,22.9193825 C32.838765,17.9931389 28.8456261,14 23.9193825,14 C18.9931389,14 15,17.9931389 15,22.9193825 C15,27.8456261 18.9931389,31.838765 23.9193825,31.838765 C26.1286449,31.838765 28.1595197,31.0291595 29.7238422,29.6843911 L30.0943396,30.0686106 L30.0943396,31.1526587 L36.9554031,38 L39,35.9554031 L32.1526587,29.0943396 Z M23.9193825,29.0943396 C20.5025729,29.0943396 17.7444254,26.3361921 17.7444254,22.9193825 C17.7444254,19.5025729 20.5025729,16.7444254 23.9193825,16.7444254 C27.3361921,16.7444254 30.0943396,19.5025729 30.0943396,22.9193825 C30.0943396,26.3361921 27.3361921,29.0943396 23.9193825,29.0943396 Z" id="Shape" fill="#4A4A4A" fill-rule="nonzero"></path>
    </g>
</svg>