<?xml version="1.0" encoding="UTF-8"?>
<svg width="32px" height="32px" viewBox="0 0 32 32" version="1.1" xmlns="http://www.w3.org/2000/svg" xmlns:xlink="http://www.w3.org/1999/xlink">
    <!-- Generator: Sketch 49.3 (51167) - http://www.bohemiancoding.com/sketch -->
    <title>Efterskole/Assets/Share@2x</title>
    <desc>Created with Sketch.</desc>
    <defs></defs>
    <g id="Efterskole/Assets/Share" stroke="none" stroke-width="1" fill="none" fill-rule="evenodd">
        <path d="M23.3333333,20.9638554 C22.4044444,20.9638554 21.5733333,21.3253012 20.9377778,21.8915663 L12.2233333,16.8915663 C12.2844444,16.6144578 12.3333333,16.3373494 12.3333333,16.0481928 C12.3333333,15.7590361 12.2844444,15.4819277 12.2233333,15.2048193 L20.84,10.253012 C21.5,10.8554217 22.3677778,11.2289157 23.3333333,11.2289157 C25.3622222,11.2289157 27,9.61445783 27,7.61445783 C27,5.61445783 25.3622222,4 23.3333333,4 C21.3044444,4 19.6666667,5.61445783 19.6666667,7.61445783 C19.6666667,7.90361446 19.7155556,8.18072289 19.7766667,8.45783133 L11.16,13.4096386 C10.5,12.8072289 9.63222222,12.4337349 8.66666667,12.4337349 C6.63777778,12.4337349 5,14.0481928 5,16.0481928 C5,18.0481928 6.63777778,19.6626506 8.66666667,19.6626506 C9.63222222,19.6626506 10.5,19.2891566 11.16,18.686747 L19.8622222,23.6987952 C19.8011111,23.9518072 19.7644444,24.2168675 19.7644444,24.4819277 C19.7644444,26.4216867 21.3655556,28 23.3333333,28 C25.3011111,28 26.9022222,26.4216867 26.9022222,24.4819277 C26.9022222,22.5421687 25.3011111,20.9638554 23.3333333,20.9638554 Z" id="Shape-Copy-7" fill="#4A4A4A" fill-rule="nonzero"></path>
    </g>
</svg>