<?xml version="1.0" encoding="UTF-8"?>
<svg width="48px" height="48px" viewBox="0 0 48 48" version="1.1" xmlns="http://www.w3.org/2000/svg" xmlns:xlink="http://www.w3.org/1999/xlink">
    <!-- Generator: Sketch 49.3 (51167) - http://www.bohemiancoding.com/sketch -->
    <title>Efterskole/Assets/Twitter@2x</title>
    <desc>Created with Sketch.</desc>
    <defs></defs>
    <g id="Efterskole/Assets/Twitter" stroke="none" stroke-width="1" fill="none" fill-rule="evenodd">
        <g id="UI-Elements/Logos/Soacial-Media/Twitter" transform="translate(-4.000000, -4.000000)">
            <rect id="Rectangle-path" x="0" y="0" width="56" height="56"></rect>
            <path d="M21.5068,42.1595566 C34.7144,42.1595566 41.9384,31.2171566 41.9384,21.7279566 C41.9384,21.4171566 41.9384,21.1077566 41.9174,20.7997566 C43.3227639,19.7832318 44.5358977,18.5245878 45.5,17.0827566 C44.1894307,17.6634791 42.799161,18.0443168 41.3756,18.2125566 C42.8746416,17.3151315 43.9965729,15.9036374 44.5326,14.2407566 C43.1230205,15.0771941 41.5809045,15.6666735 39.9728,15.9837566 C37.7469159,13.6169086 34.2100071,13.0376143 31.345369,14.5707085 C28.4807309,16.1038028 27.000785,19.3680127 27.7354,22.5329566 C21.961654,22.243506 16.5822661,19.5164092 12.936,15.0303566 C11.0300719,18.3114593 12.003583,22.5089599 15.1592,24.6161566 C14.0164377,24.5822872 12.8985911,24.2740151 11.9,23.7173566 C11.9,23.7467566 11.9,23.7775566 11.9,23.8083566 C11.9009354,27.2265868 14.3104521,30.1707059 17.661,30.8475566 C16.6038174,31.1358727 15.4946128,31.1780187 14.4186,30.9707566 C15.3593271,33.8959486 18.0552044,35.899854 21.1274,35.9575566 C18.5846291,37.9559614 15.4434833,39.0408155 12.2094,39.0375566 C11.638065,39.0364598 11.0672857,39.0018671 10.5,38.9339566 C13.7838903,41.0413438 17.6048788,42.1591603 21.5068,42.1539566" id="Shape" fill="#1DA1F2" fill-rule="nonzero"></path>
        </g>
    </g>
</svg>